# xmcd CD database file
#
# Track frame offsets:
#	150
#	11060
#	29895
#	49250
#	65235
#	83623
#	101893
#	118690
#	138195
#	158290
#	175667
#
# Disc length: 2718 seconds
#
# Revision: 1
# Processed by: cddbd v1.5.1PL0 Copyright (c) Steve Scherf et al.
# Submitted via: CDex 1.51
#
DISCID=900a9c0b
DTITLE=HIGH and MIGHTY COLOR - G∞VER
DYEAR=2005
DGENRE=JPop
TTITLE0=G∞VER
TTITLE1=NOTICE
TTITLE2=PRIDE
TTITLE3=Naked
TTITLE4=OVER
TTITLE5=Days
TTITLE6=SWEET ESCAPE
TTITLE7=RUN☆RUN☆RUN
TTITLE8=What for…
TTITLE9=Rain
TTITLE10=With YOU
EXTD=YEAR: 2005
EXTT0=
EXTT1=
EXTT2=
EXTT3=
EXTT4=
EXTT5=
EXTT6=
EXTT7=
EXTT8=
EXTT9=
EXTT10=
PLAYORDER=
